<svg width="152" height="170" viewBox="0 0 152 170" fill="none" xmlns="http://www.w3.org/2000/svg">
<path d="M70 48C78 48 88.5 48 97 48C85.3207 58.9916 25.4659 116.23 15 126C10 121 7 118 1 112C34 81 35 80 70 48Z" fill="url(#paint0_linear_20_22)"/>
<path d="M152 48C133 67 131 69 100 102C119 121.038 120 122 152 154C140.923 154 130.077 154 119 154C101.592 136.592 82 118 65 102C91.5 75.5 104 63 119 48C127 48 142 48 152 48Z" fill="url(#paint1_linear_20_22)"/>
<path d="M57.7689 109C63.2839 114.167 68.5261 119.656 73.8699 125C70.8699 128 68.4417 130.428 66.8699 132C64.8699 134 63.8699 135 59.8699 139C52.8699 146 43.8699 155 43.8699 155C38.5365 149.667 33.2032 144.333 27.8699 139C29.961 136.909 31.7772 135.093 33.8699 133C38.2032 128.667 42.5365 124.333 46.8699 120C51.3699 115.5 56.7689 110 57.7689 109Z" fill="#50B53E"/>
<defs>
<linearGradient id="paint0_linear_20_22" x1="59.2546" y1="19.2484" x2="59.2546" y2="127.943" gradientUnits="userSpaceOnUse">
<stop stop-color="#50B53E" stop-opacity="0.9"/>
<stop offset="0.755" stop-color="#84CE3F"/>
<stop offset="1" stop-color="#50B53E" stop-opacity="0.9"/>
</linearGradient>
<linearGradient id="paint1_linear_20_22" x1="102.09" y1="153.036" x2="102.09" y2="46.0727" gradientUnits="userSpaceOnUse">
<stop stop-color="#0A3649" stop-opacity="0.95"/>
<stop offset="0.48" stop-color="#4EBCE6"/>
<stop offset="1" stop-color="#0A3649" stop-opacity="0.95"/>
</linearGradient>
</defs>
</svg>
